<svg width="92" height="279" viewBox="0 0 92 279" fill="none" xmlns="http://www.w3.org/2000/svg">
<path d="M31.8104 6.55181L31.8163 6.34542L31.6148 6.30061C30.2757 6.0029 29.2782 4.81876 29.2782 3.40705C29.2782 1.77141 30.6175 0.441406 32.2746 0.441406H59.8692C61.5263 0.441406 62.8656 1.77141 62.8656 3.40705C62.8656 4.81876 61.8681 6.0029 60.529 6.30061L60.3275 6.34542L60.3334 6.5518L62.5418 83.7393L62.5465 83.9046L62.7005 83.9649C79.3786 90.5028 91.2719 106.56 91.2719 125.326V248.516C91.2719 264.85 77.9034 278.095 61.4076 278.095H30.7363C14.2405 278.095 0.87207 264.85 0.87207 248.516V125.326C0.87207 106.56 12.7653 90.5029 29.4433 83.965L29.5972 83.9046L29.602 83.7394L31.8104 6.55181Z" fill="#F8F8F8" fill-opacity="0.5" stroke="#0679FF" stroke-width="0.5"/>
<path d="M44.0038 126.542C44.0038 131.781 42.8909 136.512 41.1037 139.924C39.3103 143.348 36.8764 145.381 34.2548 145.381C31.6333 145.381 29.1993 143.348 27.4059 139.924C25.6188 136.512 24.5059 131.781 24.5059 126.542C24.5059 121.303 25.6188 116.572 27.4059 113.16C29.1993 109.736 31.6333 107.703 34.2548 107.703C36.8764 107.703 39.3103 109.736 41.1037 113.16C42.8909 116.572 44.0038 121.303 44.0038 126.542Z" fill="white" stroke="#0679FF" stroke-width="0.5"/>
<path d="M67.6381 126.542C67.6381 131.781 66.5252 136.512 64.738 139.924C62.9446 143.348 60.5106 145.381 57.8891 145.381C55.2676 145.381 52.8336 143.348 51.0402 139.924C49.253 136.512 48.1401 131.781 48.1401 126.542C48.1401 121.303 49.253 116.572 51.0402 113.16C52.8336 109.736 55.2676 107.703 57.8891 107.703C60.5106 107.703 62.9446 109.736 64.738 113.16C66.5252 116.572 67.6381 121.303 67.6381 126.542Z" fill="white" stroke="#0679FF" stroke-width="0.5"/>
<path d="M43.9856 127.451C43.9856 129.924 43.3838 132.15 42.4238 133.75C41.4609 135.355 40.1654 136.291 38.7816 136.291C37.3979 136.291 36.1024 135.355 35.1394 133.75C34.1795 132.15 33.5776 129.924 33.5776 127.451C33.5776 124.979 34.1795 122.752 35.1394 121.152C36.1024 119.547 37.3979 118.611 38.7816 118.611C40.1654 118.611 41.4609 119.547 42.4238 121.152C43.3838 122.752 43.9856 124.979 43.9856 127.451Z" fill="#0679FF" stroke="#0679FF" stroke-width="0.5"/>
<path d="M67.2963 127.451C67.2963 129.916 66.5964 132.137 65.4778 133.736C64.3586 135.334 62.8364 136.291 61.1833 136.291C59.5302 136.291 58.008 135.334 56.8888 133.736C55.7701 132.137 55.0703 129.916 55.0703 127.451C55.0703 124.986 55.7701 122.765 56.8888 121.167C58.008 119.568 59.5302 118.611 61.1833 118.611C62.8364 118.611 64.3586 119.568 65.4778 121.167C66.5964 122.765 67.2963 124.986 67.2963 127.451Z" fill="#0679FF" stroke="#0679FF" stroke-width="0.5"/>
<path d="M51.2757 146.539C51.2757 148.87 48.9904 150.834 46.0717 150.834C43.153 150.834 40.8677 148.87 40.8677 146.539C40.8677 144.208 43.153 142.244 46.0717 142.244C48.9904 142.244 51.2757 144.208 51.2757 146.539Z" fill="#0679FF" stroke="#0679FF" stroke-width="0.5"/>
</svg>
