<svg width="96" height="242" viewBox="0 0 96 242" fill="none" xmlns="http://www.w3.org/2000/svg">
<path fill-rule="evenodd" clip-rule="evenodd" d="M71.5067 27.7295C70.557 26.5716 69.1383 25.9004 67.6407 25.9004H27.7984C26.3009 25.9004 24.8822 26.5716 23.9325 27.7295L0.203743 56.6598C0.203468 56.6601 0.203056 56.6603 0.202622 56.6603C0.201821 56.6603 0.201172 56.661 0.201172 56.6618V236.227C0.201172 238.988 2.43975 241.227 5.20117 241.227H90.2355C92.997 241.227 95.2355 238.988 95.2355 236.227V56.6618C95.2355 56.6616 95.2357 56.6614 95.2359 56.6614C95.2363 56.6614 95.2364 56.661 95.2362 56.6608L71.5067 27.7295Z" fill="#CDE5FF"/>
<rect x="25.4326" y="0.732422" width="44.5736" height="25.1681" rx="5" fill="#4A9EFF"/>
<rect x="29.9844" y="0.982422" width="3.75418" height="24.7776" fill="#0788FF"/>
<rect x="37.9932" y="0.982422" width="3.75418" height="24.7776" fill="#0788FF"/>
<rect x="46.002" y="0.982422" width="3.75418" height="24.7776" fill="#0788FF"/>
<rect x="54.0107" y="0.982422" width="3.75418" height="24.7776" fill="#0788FF"/>
<rect x="62.02" y="0.982422" width="3.75418" height="24.7776" fill="#0788FF"/>
<ellipse cx="22.3511" cy="73.3125" rx="9.63572" ry="15.7675" fill="white"/>
<ellipse cx="44.6255" cy="73.3125" rx="9.63572" ry="15.7675" fill="white"/>
<ellipse cx="18.4717" cy="74.0642" rx="5.7564" ry="8.50947" fill="#0679FF"/>
<ellipse cx="18.4717" cy="74.0642" rx="5.7564" ry="8.50947" fill="#0679FF"/>
<ellipse cx="40.7462" cy="74.0642" rx="5.7564" ry="8.50947" fill="#0679FF"/>
<ellipse cx="40.7462" cy="74.0642" rx="5.7564" ry="8.50947" fill="#0679FF"/>
<circle cx="32.7373" cy="90.332" r="5.25585" fill="#0679FF"/>
<circle cx="32.7373" cy="90.332" r="5.25585" fill="#0679FF"/>
</svg>
