<svg
      width="18"
      height="22"
      viewBox="0 0 18 22"
      fill="none"
      xmlns="http://www.w3.org/2000/svg"
    >
      <path
        d="M0.482143 7.93278H17.5179C17.783 7.93278 18 8.15589 18 8.42858V19.1709C18 20.2658 17.1362 21.1541 16.0714 21.1541H1.92857C0.863839 21.1541 0 20.2658 0 19.1709V8.42858C0 8.15589 0.216964 7.93278 0.482143 7.93278ZM18 6.11485V4.62746C18 3.53257 17.1362 2.64426 16.0714 2.64426H14.1429V0.495799C14.1429 0.22311 13.9259 0 13.6607 0H12.0536C11.7884 0 11.5714 0.22311 11.5714 0.495799V2.64426H6.42857V0.495799C6.42857 0.22311 6.21161 0 5.94643 0H4.33929C4.07411 0 3.85714 0.22311 3.85714 0.495799V2.64426H1.92857C0.863839 2.64426 0 3.53257 0 4.62746V6.11485C0 6.38754 0.216964 6.61065 0.482143 6.61065H17.5179C17.783 6.61065 18 6.38754 18 6.11485Z"
        fill="#0679FF"
      />
    </svg>