<svg width="144" height="474" viewBox="0 0 144 474" fill="none" xmlns="http://www.w3.org/2000/svg">
<path d="M64.2759 209.681C58.9136 160.148 59.4607 57.3573 104.547 42.4587" stroke="#0679FF" stroke-width="2"/>
<path fill-rule="evenodd" clip-rule="evenodd" d="M41.6161 104.266C39.2587 104.266 37.3477 106.177 37.3477 108.534C37.3477 110.569 38.7715 112.271 40.6772 112.699L37.8761 211.537C16.4085 214.951 0 233.548 0 255.976V443.484C0 460.053 13.4314 473.484 30 473.484H89.5158C106.084 473.484 119.516 460.053 119.516 443.484V255.976C119.516 233.547 103.106 214.95 81.6376 211.537L78.8366 112.699C80.7423 112.271 82.1661 110.569 82.1661 108.534C82.1661 106.177 80.2551 104.266 77.8977 104.266H41.6161Z" fill="#00BE9D"/>
<ellipse cx="44.1812" cy="272.007" rx="13.0908" ry="24.9544" fill="white"/>
<ellipse cx="76.908" cy="272.007" rx="13.909" ry="24.9544" fill="white"/>
<ellipse cx="38.863" cy="272.417" rx="7.77268" ry="12.2727" fill="#0679FF"/>
<ellipse cx="71.5899" cy="272.417" rx="8.59086" ry="12.2727" fill="#0679FF"/>
<ellipse cx="59.7264" cy="298.598" rx="7.36359" ry="6.54541" fill="#0679FF"/>
<path fill-rule="evenodd" clip-rule="evenodd" d="M92.2976 48.9498C91.1047 48.5881 89.8972 48.1579 88.6875 47.658C78.2455 43.3437 71.5857 35.4772 73.8125 30.0878C75.7006 25.518 83.3717 24.1964 92.027 26.5304C90.5354 15.9649 93.5842 6.86606 99.095 5.89675C104.706 4.90991 110.793 12.7144 112.895 23.4496C119.987 14.942 129.229 10.9889 133.688 14.6161C138.212 18.2959 136.099 28.384 128.97 37.1486C128.323 37.9439 127.656 38.7011 126.977 39.4176C127.417 39.7385 127.856 40.0717 128.291 40.4171C137.141 47.4397 141.378 56.8357 137.753 61.4037C134.129 65.9717 124.016 63.9819 115.165 56.9593C114.264 56.2444 113.411 55.5048 112.609 54.7483C112.596 54.8035 112.583 54.8587 112.57 54.914C109.969 65.9086 103.26 73.7332 97.5853 72.3906C91.9106 71.0481 89.4191 61.0468 92.0203 50.0521C92.1081 49.681 92.2006 49.3135 92.2976 48.9498Z" fill="#FFED95"/>
<circle cx="108.524" cy="38.4095" r="4.61936" transform="rotate(-9.97578 108.524 38.4095)" fill="#0679FF"/>
</svg>
