<svg width="28" height="22" viewBox="0 0 28 22" fill="none" xmlns="http://www.w3.org/2000/svg">
<path d="M23.3333 18.8571V19.6429C23.3333 20.9447 22.2887 22 21 22H2.33333C1.04465 22 0 20.9447 0 19.6429V7.07143C0 5.7696 1.04465 4.71429 2.33333 4.71429H3.11111V14.9286C3.11111 17.0948 4.85567 18.8571 7 18.8571H23.3333ZM28 14.9286V2.35714C28 1.05531 26.9553 0 25.6667 0H7C5.71132 0 4.66667 1.05531 4.66667 2.35714V14.9286C4.66667 16.2304 5.71132 17.2857 7 17.2857H25.6667C26.9553 17.2857 28 16.2304 28 14.9286ZM12.4444 4.71429C12.4444 6.01612 11.3998 7.07143 10.1111 7.07143C8.82243 7.07143 7.77778 6.01612 7.77778 4.71429C7.77778 3.41246 8.82243 2.35714 10.1111 2.35714C11.3998 2.35714 12.4444 3.41246 12.4444 4.71429ZM7.77778 11.7857L10.4764 9.05953C10.7042 8.82942 11.0736 8.82942 11.3014 9.05953L13.2222 11L19.8098 4.34525C20.0375 4.11513 20.4069 4.11513 20.6347 4.34525L24.8889 8.64286V14.1429H7.77778V11.7857Z" fill="#0788FF"/>
</svg>
