<svg width="56" height="44" viewBox="0 0 56 44" fill="none" xmlns="http://www.w3.org/2000/svg">
<path d="M46.6667 37.7143V39.2857C46.6667 41.8894 44.5774 44 42 44H4.66667C2.08931 44 0 41.8894 0 39.2857V14.1429C0 11.5392 2.08931 9.42857 4.66667 9.42857H6.22222V29.8571C6.22222 34.1896 9.71133 37.7143 14 37.7143H46.6667ZM56 29.8571V4.71429C56 2.11063 53.9107 0 51.3333 0H14C11.4226 0 9.33333 2.11063 9.33333 4.71429V29.8571C9.33333 32.4608 11.4226 34.5714 14 34.5714H51.3333C53.9107 34.5714 56 32.4608 56 29.8571ZM24.8889 9.42857C24.8889 12.0322 22.7996 14.1429 20.2222 14.1429C17.6449 14.1429 15.5556 12.0322 15.5556 9.42857C15.5556 6.82491 17.6449 4.71429 20.2222 4.71429C22.7996 4.71429 24.8889 6.82491 24.8889 9.42857ZM15.5556 23.5714L20.9528 18.1191C21.4084 17.6588 22.1471 17.6588 22.6028 18.1191L26.4444 22L39.6195 8.69049C40.0751 8.23026 40.8138 8.23026 41.2695 8.69049L49.7778 17.2857V28.2857H15.5556V23.5714Z" fill="#0788FF"/>
</svg>
