<svg width="137" height="231" viewBox="0 0 137 231" fill="none" xmlns="http://www.w3.org/2000/svg">
<path d="M82.7222 3.34674C82.7222 1.90289 83.9592 0.732422 85.4851 0.732422H113.833C115.359 0.732422 116.596 1.90289 116.596 3.34674V20.7007C116.596 22.1445 115.359 23.315 113.833 23.315H85.4851C83.9592 23.315 82.7222 22.1445 82.7222 20.7007V3.34674Z" fill="#03C75A"/>
<path fill-rule="evenodd" clip-rule="evenodd" d="M49.3572 28.369L4.63231 93.2205C2.17507 96.7836 0.859863 101.004 0.859863 105.325V209.399C0.859863 221.214 10.486 230.792 22.3605 230.792H114.855C126.729 230.792 136.355 221.214 136.355 209.399V44.2169C136.355 30.3342 125.045 19.0801 111.092 19.0801H67.0854C59.9985 19.0801 53.3669 22.5548 49.3572 28.369ZM61.9334 41.5565C58.9112 38.6066 54.5442 39.0476 52.1793 42.5416L18.7417 91.9448C16.3768 95.4388 16.9097 100.663 19.9319 103.613C22.9541 106.563 27.3212 106.122 29.6861 102.628L63.1237 53.2243C65.4885 49.7303 64.9557 44.5064 61.9334 41.5565Z" fill="#FEE500"/>
<ellipse cx="80.2881" cy="73.6827" rx="11.2134" ry="18.2218" fill="white"/>
<ellipse cx="105.519" cy="73.6827" rx="11.2134" ry="18.2218" fill="white"/>
<ellipse cx="80.2882" cy="75.552" rx="6.54116" ry="9.81174" fill="#0679FF"/>
<ellipse cx="104.584" cy="75.552" rx="6.54116" ry="9.81174" fill="#0679FF"/>
<circle cx="91.969" cy="93.3064" r="6.07393" fill="#0679FF"/>
</svg>
