<?xml version="1.0" encoding="UTF-8"?>
<svg xmlns="http://www.w3.org/2000/svg" xmlns:xlink="http://www.w3.org/1999/xlink" width="21px" height="20px" viewBox="0 0 21 20" version="1.1">
<g id="surface1">
<path style=" stroke:none;fill-rule:nonzero;fill:rgb(2.352941%,47.45098%,100%);fill-opacity:1;" d="M 21 5 L 21 17.855469 C 21 19.039062 20.117188 20 19.03125 20 L 1.96875 20 C 0.882812 20 0 19.039062 0 17.855469 L 0 5 C 0 3.816406 0.882812 2.855469 1.96875 2.855469 L 5.578125 2.855469 L 6.082031 1.386719 C 6.371094 0.554688 7.105469 0 7.925781 0 L 13.070312 0 C 13.890625 0 14.625 0.554688 14.914062 1.386719 L 15.421875 2.855469 L 19.03125 2.855469 C 20.117188 2.855469 21 3.816406 21 5 Z M 15.421875 11.429688 C 15.421875 8.472656 13.214844 6.070312 10.5 6.070312 C 7.785156 6.070312 5.578125 8.472656 5.578125 11.429688 C 5.578125 14.382812 7.785156 16.785156 10.5 16.785156 C 13.214844 16.785156 15.421875 14.382812 15.421875 11.429688 Z M 14.109375 11.429688 C 14.109375 13.59375 12.488281 15.355469 10.5 15.355469 C 8.511719 15.355469 6.890625 13.59375 6.890625 11.429688 C 6.890625 9.261719 8.511719 7.5 10.5 7.5 C 12.488281 7.5 14.109375 9.261719 14.109375 11.429688 Z M 14.109375 11.429688 "/>
</g>
</svg>
