<svg width="29" height="27" viewBox="0 0 29 27" fill="none" xmlns="http://www.w3.org/2000/svg">
<path d="M29 6.75V24.1071C29 25.7042 27.7822 27 26.2812 27H2.71875C1.21777 27 0 25.7042 0 24.1071V6.75C0 5.1529 1.21777 3.85714 2.71875 3.85714H7.70312L8.39981 1.87433C8.79629 0.747321 9.81016 0 10.943 0H18.0514C19.1842 0 20.198 0.747321 20.5945 1.87433L21.2969 3.85714H26.2812C27.7822 3.85714 29 5.1529 29 6.75ZM21.2969 15.4286C21.2969 11.4388 18.2496 8.19643 14.5 8.19643C10.7504 8.19643 7.70312 11.4388 7.70312 15.4286C7.70312 19.4183 10.7504 22.6607 14.5 22.6607C18.2496 22.6607 21.2969 19.4183 21.2969 15.4286ZM19.4844 15.4286C19.4844 18.3516 17.2471 20.7321 14.5 20.7321C11.7529 20.7321 9.51562 18.3516 9.51562 15.4286C9.51562 12.5056 11.7529 10.125 14.5 10.125C17.2471 10.125 19.4844 12.5056 19.4844 15.4286Z" fill="#0679FF"/>
</svg>
