<svg width="296" height="229" viewBox="0 0 296 229" fill="none" xmlns="http://www.w3.org/2000/svg">
<circle cx="258" cy="137" r="13" fill="#E6F3FF"/>
<circle cx="35.5" cy="59.5" r="24.5" fill="#E6F3FF"/>
<circle cx="11.5" cy="51.5" r="11.5" fill="#E6F3FF"/>
<circle cx="273.5" cy="126.5" r="11.5" fill="#E6F3FF"/>
<circle cx="142.5" cy="114.5" r="114.5" fill="#006AF6"/>
<path fill-rule="evenodd" clip-rule="evenodd" d="M191.501 10.9851C183.903 19.1063 178.52 30.0903 181.5 43.5C184.104 55.2154 187.399 61.1212 189.533 64.9473C193.138 71.4086 193.434 71.9383 181.5 84.5C177.231 88.9939 172.255 92.9576 167.695 96.5898L167.695 96.5899C151.962 109.123 141.185 117.707 181.5 130.5C213.238 140.571 222.997 130.153 230.331 122.324C235.014 117.326 238.707 113.383 246.5 116.5C249.684 117.773 252.841 119.237 255.861 120.636L255.862 120.636L255.863 120.637C256.182 120.784 256.499 120.931 256.815 121.077C253.407 181.253 203.529 229 142.5 229C112.979 229 86.0671 217.828 65.7621 199.481C71.7383 201.166 77.0879 201.696 81.0008 201C94.35 198.627 94.3232 193.966 94.2861 187.538C94.2607 183.133 94.2305 177.897 98.5008 172C109.001 157.5 91.5008 136 58.5008 129C41.0808 125.305 32.1366 118.359 28.0195 112.385C28.3624 93.4588 33.2973 75.6542 41.7572 60.0381C49.5521 61.1685 66.7972 61.2031 75.5003 52.5C82.6508 45.3495 82.8291 40.3118 83.0395 34.3654C83.1528 31.1641 83.2755 27.6995 84.5003 23.5C85.9391 18.5671 90.0814 15.3241 92.864 13.1457C94.6678 11.7334 95.9002 10.7686 95.4539 10.0809C109.806 3.60449 125.732 0 142.5 0C160.034 0 176.646 3.94085 191.501 10.9851Z" fill="#1CD7A0"/>
<circle cx="202.5" cy="205.5" r="11.5" fill="#E6F3FF"/>
<circle cx="183.5" cy="187.5" r="24.5" fill="#E6F3FF"/>
<circle cx="207.5" cy="172.5" r="24.5" fill="#E6F3FF"/>
<circle cx="220.5" cy="183.5" r="24.5" fill="#E6F3FF"/>
<circle cx="250.5" cy="172.5" r="24.5" fill="#E6F3FF"/>
<circle cx="262.5" cy="183.5" r="24.5" fill="#E6F3FF"/>
<circle cx="271.5" cy="159.5" r="24.5" fill="#E6F3FF"/>
<ellipse cx="159.909" cy="108.954" rx="13.909" ry="24.9544" fill="white"/>
<ellipse cx="117.909" cy="108.954" rx="13.909" ry="24.9544" fill="white"/>
<ellipse cx="121.864" cy="109.362" rx="7.77268" ry="12.2727" fill="#0679FF"/>
<ellipse cx="154.591" cy="109.362" rx="8.59086" ry="12.2727" fill="#0679FF"/>
<path d="M147.001 135.545C147.001 139.16 143.704 142.091 139.637 142.091C135.57 142.091 132.273 139.16 132.273 135.545C132.273 131.93 135.57 129 139.637 129C143.704 129 147.001 131.93 147.001 135.545Z" fill="#0679FF"/>
</svg>
